 <svg xmlns="http://www.w3.org/2000/svg" xmlns:xlink="http://www.w3.org/1999/xlink" style="margin: auto; background: rgba(241, 242, 243, 0); display: block;" width="194px" height="194px" viewBox="0 0 100 100" preserveAspectRatio="xMidYMid">
        <defs>
          <path id="path" d="M50 15A12 35 0 0 1 50 85A12 35 0 0 1 50 15" fill="none"></path>
          <path id="patha" d="M0 0A12 35 0 0 1 0 70A12 35 0 0 1 0 0" fill="none"></path>
        </defs><g transform="rotate(0 50 50)">
        <use xlink:href="#path" stroke="#C0C0C0" stroke-width="1"></use>
        </g><g transform="rotate(60 50 50)">
        <use xlink:href="#path" stroke="#C0C0C0" stroke-width="1"></use>
        </g><g transform="rotate(120 50 50)">
        <use xlink:href="#path" stroke="#C0C0C0" stroke-width="1"></use>
        </g><g transform="rotate(0 50 50)">
        <circle cx="50" cy="15" r="4" fill="#93dbe9">
          <animateMotion dur="0.7633587786259541s" repeatCount="indefinite" begin="0s">
            <mpath xlink:href="#patha"></mpath>
          </animateMotion>
        </circle>
        </g><g transform="rotate(60 50 50)">
        <circle cx="50" cy="15" r="4" fill="#689cc5">
          <animateMotion dur="0.7633587786259541s" repeatCount="indefinite" begin="-0.16666666666666666s">
            <mpath xlink:href="#patha"></mpath>
          </animateMotion>
        </circle>
        </g><g transform="rotate(120 50 50)">
        <circle cx="50" cy="15" r="4" fill="#5e6fa3">
          <animateMotion dur="0.7633587786259541s" repeatCount="indefinite" begin="-0.3333333333333333s">
            <mpath xlink:href="#patha"></mpath>
          </animateMotion>
        </circle>
        </g>
</svg>